<?xml version="1.0" standalone="no"?><!DOCTYPE svg PUBLIC "-//W3C//DTD SVG 1.1//EN" "http://www.w3.org/Graphics/SVG/1.1/DTD/svg11.dtd"><svg t="1695443825199" class="icon" viewBox="0 0 1024 1024" version="1.1" xmlns="http://www.w3.org/2000/svg" p-id="5115" xmlns:xlink="http://www.w3.org/1999/xlink" width="200" height="200"><path d="M896 704a32 32 0 0 1 31.776 28.256L928 736v192a64 64 0 0 1-64 64H160a64 64 0 0 1-64-64v-192a32 32 0 0 1 63.776-3.744L160 736v192h704v-192a32 32 0 0 1 32-32zM132.8 398.72l3.2 3.2-0.032 87.36h72l0.032-87.36 3.2-3.2h56.64l3.2 3.2V640l-3.2 3.2H211.2l-3.2-3.2-0.032-94.72h-72L136 640l-3.2 3.2H75.52l-3.2-3.2v-238.08l3.2-3.2h57.28z m358.4 0l3.2 3.2v47.36l-3.2 3.2h-61.472L429.76 640l-3.2 3.2h-57.28l-3.2-3.2-0.032-187.52H304.96l-3.2-3.2v-47.36l3.2-3.2h186.24z m98.56 0l3.008 2.08 37.76 102.784 3.104 9.344 3.52 11.712 4.352 15.2 8.416-28.576 2.432-7.68 36.48-102.72 3.008-2.144h62.08l3.2 3.2V640l-3.2 3.2h-52.16l-3.2-3.2v-81.6c0-5.376 0.224-11.52 0.64-18.368l1.152-14.688 1.472-14.816 1.216-11.264-12.032 34.656-32 87.04-3.008 2.08h-31.36l-3.008-2.08-32.32-87.136-11.296-33.472 1.824 16.928 0.768 8.064 1.12 14.72c0.32 4.544 0.512 8.8 0.608 12.704l0.064 5.632V640l-3.2 3.2h-51.2l-3.2-3.2v-238.08l3.2-3.2h61.76z m276.16 0l3.2 3.2-0.032 186.88h89.312l3.2 3.2V640l-3.2 3.2h-149.76l-3.2-3.2v-238.08l3.2-3.2h57.28zM736 32l192 192v64h-256V96H160v192a32 32 0 0 1-63.776 3.744L96 288V96a64 64 0 0 1 64-64h576z m0 90.528V224l101.44-0.032L736 122.528z" fill="#2c2c2c" p-id="5116"></path></svg>