<?xml version="1.0" standalone="no"?><!DOCTYPE svg PUBLIC "-//W3C//DTD SVG 1.1//EN" "http://www.w3.org/Graphics/SVG/1.1/DTD/svg11.dtd"><svg t="1695454520051" class="icon" viewBox="0 0 1024 1024" version="1.1" xmlns="http://www.w3.org/2000/svg" p-id="12066" xmlns:xlink="http://www.w3.org/1999/xlink" width="200" height="200"><path d="M446.0544 668.672h-64.3072V356.9664h64.3072v311.7056zM596.1728 380.1088v56.9344h39.5264v45.4656h-39.5264V598.016c0 8.6016 1.6384 14.7456 4.9152 18.432 3.2768 3.6864 9.6256 5.5296 18.8416 5.5296 6.7584 0 12.9024-0.4096 18.2272-1.4336v46.8992c-12.0832 3.6864-24.576 5.5296-37.4784 5.5296-43.4176 0-65.536-21.9136-66.3552-65.7408v-124.7232h-33.792v-45.4656h33.792v-56.9344h61.8496z" fill="#2c2c2c" p-id="12067"></path><path d="M848.6912 816.7424H171.4176c-56.7296 0-103.0144-46.2848-103.0144-103.0144V310.0672c0-56.7296 46.2848-103.0144 103.0144-103.0144h677.0688c56.7296 0 103.0144 46.2848 103.0144 103.0144v403.6608c0.2048 27.4432-10.4448 53.248-29.9008 72.704-19.456 19.6608-45.2608 30.3104-72.9088 30.3104zM171.4176 258.4576c-28.4672 0-51.8144 23.1424-51.8144 51.8144v403.6608c0 28.4672 23.1424 51.8144 51.8144 51.8144h677.2736c13.9264 0 26.8288-5.3248 36.6592-15.1552 9.6256-9.8304 14.9504-22.7328 14.9504-36.4544V310.0672c0-28.4672-23.1424-51.8144-51.8144-51.8144H171.4176z" fill="#2c2c2c" p-id="12068"></path></svg>