<?xml version="1.0" standalone="no"?><!DOCTYPE svg PUBLIC "-//W3C//DTD SVG 1.1//EN" "http://www.w3.org/Graphics/SVG/1.1/DTD/svg11.dtd"><svg t="1695442786011" class="icon" viewBox="0 0 1024 1024" version="1.1" xmlns="http://www.w3.org/2000/svg" p-id="41242" xmlns:xlink="http://www.w3.org/1999/xlink" width="200" height="200"><path d="M562.346667 618.666667c-27.733333 32.426667-72.96 32.426667-100.693334 0l-144.213333-170.666667C305.493333 481.28 298.666667 517.12 298.666667 554.666667c0 71.253333 24.32 135.68 64 182.186666 64 4.266667 119.04 29.44 139.946666 73.813334h18.773334c20.906667-42.666667 73.813333-66.56 138.24-71.253334C700.16 692.906667 725.333333 627.2 725.333333 554.666667c0-37.546667-6.826667-73.386667-18.773333-106.666667l-144.213333 170.666667M853.333333 885.333333c0 23.466667-29.866667 53.333333-53.333333 53.333334h-234.666667c-23.466667 0-53.333333-29.866667-53.333333-53.333334 0 23.466667-29.866667 53.333333-53.333333 53.333334h-234.666667C200.533333 938.666667 170.666667 908.8 170.666667 885.333333c0-55.466667 40.106667-104.106667 98.133333-132.266666C234.666667 697.173333 213.333333 628.48 213.333333 554.666667c-42.666667 85.333333-98.133333 109.226667-124.16 85.333333-25.173333-23.893333-12.8-92.586667 43.093334-153.173333 31.573333-34.56 81.066667-76.373333 115.626666-92.16 13.653333-29.44 31.146667-56.32 50.773334-79.786667V298.666667a213.333333 213.333333 0 0 1 213.333333-213.333334 213.333333 213.333333 0 0 1 213.333333 213.333334v16.213333c19.626667 23.466667 37.12 50.346667 50.773334 79.786667 34.56 15.786667 84.053333 57.6 115.626666 92.16 55.893333 60.586667 68.266667 129.28 43.093334 153.173333-26.026667 23.893333-81.493333 0-124.16-85.333333 0 74.666667-21.333333 143.786667-56.746667 200.106666 58.88 27.306667 99.413333 74.666667 99.413333 130.56M421.546667 384c-17.92 21.333333-17.92 54.186667 0 74.666667l53.333333 64c17.493333 20.48 46.08 20.48 64 0l53.333333-64c17.493333-20.48 17.493333-53.333333 0-74.666667h-170.666666M426.666667 224c-23.466667 0-42.666667 27.733333-42.666667 74.666667s19.2 74.666667 42.666667 74.666666S469.333333 345.6 469.333333 298.666667s-19.2-74.666667-42.666666-74.666667m170.666666 0c-23.466667 0-42.666667 27.733333-42.666666 74.666667s19.2 74.666667 42.666666 74.666666S640 345.6 640 298.666667s-19.2-74.666667-42.666667-74.666667z" fill="" p-id="41243"></path></svg>