<?xml version="1.0" standalone="no"?><!DOCTYPE svg PUBLIC "-//W3C//DTD SVG 1.1//EN" "http://www.w3.org/Graphics/SVG/1.1/DTD/svg11.dtd"><svg t="1695442873721" class="icon" viewBox="0 0 1024 1024" version="1.1" xmlns="http://www.w3.org/2000/svg" p-id="42545" xmlns:xlink="http://www.w3.org/1999/xlink" width="200" height="200"><path d="M512 192c31.488 20.992 66.304 36.608 102.656 46.848 47.872 13.568 87.296 17.664 114.432 18.432-2.304 30.464-7.424 77.824-17.92 139.776-8.704 51.968-26.112 97.024-51.968 134.656-26.624 38.656-53.76 57.088-67.584 64.512-43.776 23.808-77.312 25.344-79.872 25.344s-36.096-1.536-79.872-25.344c-13.824-7.424-40.96-25.856-67.584-64.512-25.6-37.376-43.264-82.688-51.968-134.656-10.496-61.952-15.36-109.568-17.92-139.776 27.392-0.768 66.816-5.12 114.432-18.432 36.864-10.24 71.68-25.856 103.168-46.848m0-45.824s-39.936 36.864-112.64 57.344c-50.688 14.336-91.136 17.408-115.712 17.408-17.664 0-27.648-1.536-27.648-1.536s0.768 66.56 20.48 183.808c21.248 125.44 87.04 197.632 138.24 225.28 54.528 29.44 96 29.696 97.28 29.696s42.752-0.256 97.28-29.696c51.2-27.648 116.992-99.84 138.24-225.28 19.712-117.504 20.48-183.808 20.48-183.808s-9.728 1.536-27.648 1.536c-24.832 0-65.024-3.072-115.712-17.408-72.704-20.224-112.64-57.344-112.64-57.344z m0 0" p-id="42546"></path><path d="M512 182.784v219.392h-219.392l-17.92-159.232L512 182.784z m0 219.392v236.8l73.216-17.408 77.568-67.328 41.984-72.192 26.624-79.616H512z m0 0" p-id="42547"></path><path d="M950.784 109.824l0.256 658.176-0.256 0.256H73.216l-0.256-0.256V110.08l0.256-0.256h877.568m0-73.216H73.216C32.768 36.608 0 69.376 0 109.824V768c0 40.448 32.768 72.96 73.216 73.216h877.824c40.448 0 72.96-32.768 73.216-73.216V109.824c-0.256-40.448-33.024-73.216-73.472-73.216z m-72.96 877.568H146.176v73.216h731.392v-73.216z m0 0" p-id="42548"></path><path d="M585.216 768h-146.176v146.176h146.176V768z m-512-73.216h877.824V768H73.216v-73.216z m0 0" p-id="42549"></path></svg>