<?xml version="1.0" standalone="no"?><!DOCTYPE svg PUBLIC "-//W3C//DTD SVG 1.1//EN" "http://www.w3.org/Graphics/SVG/1.1/DTD/svg11.dtd"><svg t="1695444543327" class="icon" viewBox="0 0 1024 1024" version="1.1" xmlns="http://www.w3.org/2000/svg" p-id="7992" xmlns:xlink="http://www.w3.org/1999/xlink" width="200" height="200"><path d="M130.267074 979.570736h139.432264a25.192338 25.192338 0 0 0 24.719686 21.64745h317.007524c12.761597 0 22.781814-9.453035 24.719686-21.64745h139.432264a42.680452 42.680452 0 0 0 42.680452-42.680452H87.633887c0 23.585322 19.09513 42.680452 42.633187 42.680452zM986.192114 540.902654c-35.543411-28.784491-85.597231-29.257143-118.541057-25.617724 0.945303-22.970875 1.46522-46.461666 1.465221-70.897762H0.004254c0 234.907916 35.543411 404.400831 260.478375 467.641634h348.155274c89.094853-25.003277 148.176321-67.022017 187.35915-122.889453 85.360905-1.654281 222.666236-35.25982 227.81814-153.139164 2.221463-51.61357-19.236926-80.256266-37.623079-95.097531z m-154.415324 180.836557c16.35375-42.01874 26.043111-89.283914 31.384076-141.228341 23.065405-3.781214 62.815417-6.191738 82.903116 10.162013 3.686684 3.024971 15.172121 12.383476 13.848696 42.585922-2.694115 61.066605-78.507454 81.579691-128.135888 88.480406zM354.067674 411.396077s165.42811-12.14715 89.61477-151.626679c-60.877544-111.971198-46.981583-177.66979 30.911424-237.034849 0 0-255.137411 64.989615-106.346642 266.102931 54.591276 87.629633-14.179552 122.558597-14.179552 122.558597z" p-id="7993"></path><path d="M465.56622 400.241495s132.531549-27.933718 60.404893-134.516685c-26.184907-46.22534 9.925687-62.720886 9.925686-62.720887s-85.31364 2.694115-49.297576 76.002401c28.831756 58.939672 20.27676 92.403416-21.033003 121.235171z" p-id="7994"></path></svg>