<?xml version="1.0" standalone="no"?><!DOCTYPE svg PUBLIC "-//W3C//DTD SVG 1.1//EN" "http://www.w3.org/Graphics/SVG/1.1/DTD/svg11.dtd"><svg t="1695442884849" class="icon" viewBox="0 0 1452 1024" version="1.1" xmlns="http://www.w3.org/2000/svg" p-id="42702" xmlns:xlink="http://www.w3.org/1999/xlink" width="283.59375" height="200"><path d="M177.248328 708.554419a48.75907 48.711442 60 1 0 84.370693-48.711442 48.75907 48.711442 60 1 0-84.370693 48.711442Z" fill="#2c2c2c" p-id="42703"></path><path d="M592.098233 431.37786a32.422698 32.422698 0 0 1 1.976558 64.797768l-1.976558 0.059535H40.05507a32.422698 32.422698 0 0 1-1.976558-64.797768l1.976558-0.059535h552.043163zM478.44614 805.221209a32.422698 32.422698 0 0 1 1.976558 64.797768l-1.976558 0.059535H186.177488a32.422698 32.422698 0 0 1-1.976558-64.797768l1.976558-0.059535h292.268652z" fill="#2c2c2c" p-id="42704"></path><path d="M102.602419 1016.403349A95.065302 95.065302 0 0 1 35.423256 988.517209a95.196279 95.196279 0 0 1-27.838512-67.202976l0.035721-2.393303V463.800558a32.422698 32.422698 0 0 1 64.797768-1.976558l0.059534 1.976558v455.120372l-0.023814 1.190698a30.350884 30.350884 0 0 0 8.846884 22.563721c5.405767 5.417674 12.633302 8.561116 20.218047 8.846884l3.476837-0.011907h681.948279a32.422698 32.422698 0 0 1 1.976558 64.78586l-1.976558 0.059535H104.995721l-2.393302 0.047628zM575.869023 236.329674a32.422698 32.422698 0 0 1 1.976558 64.797768l-1.976558 0.059535-469.26586-0.011907-1.309768 0.142883a38.078512 38.078512 0 0 0-32.684651 32.744187l-0.226232 2.155162a32.422698 32.422698 0 1 1-64.666791-4.88186 102.935814 102.935814 0 0 1 91.683721-94.624744l3.143442-0.285768 2.452837-0.095256h470.873302z" fill="#2c2c2c" p-id="42705"></path><path d="M982.444651 12.764279a32.422698 32.422698 0 0 1 32.994233 55.796093l-1.833675 1.071628-403.896558 221.291163 0.559628 6.548837c13.454884 146.03907 65.178791 285.910326 145.181768 408.028279l4.929488 7.453768c75.013953 112.211349 169.960186 201.204093 252.046884 241.925953a32.422698 32.422698 0 0 1-28.814884 58.106047c-92.94586-46.115721-196.179349-142.871814-277.146791-263.977675-93.946047-140.514233-152.826047-303.818419-162.970791-474.588279a32.422698 32.422698 0 0 1 14.895628-29.243535l1.905117-1.119256L982.444651 12.764279z" fill="#2c2c2c" p-id="42706"></path><path d="M969.585116 25.623814a32.434605 32.434605 0 0 1 42.114977-13.824l1.905116 0.952558 422.149954 231.30493a32.422698 32.422698 0 0 1-29.255442 57.844093l-1.905116-0.964465L982.444651 69.643907a32.422698 32.422698 0 0 1-12.859535-44.020093zM1368.766512 405.789767a32.422698 32.422698 0 0 1 63.202232 14.597954C1370.326326 687.389767 1189.018791 925.410233 1012.426419 1012.986047a32.422698 32.422698 0 0 1-28.814884-58.106047c158.803349-78.752744 327.79907-300.603535 385.154977-549.078326z" fill="#2c2c2c" p-id="42707"></path><path d="M981.789767 25.028465a32.434605 32.434605 0 0 1 32.363163 30.44614l0.059535 1.976558v893.975814a32.422698 32.422698 0 0 1-64.797767 1.976558l-0.059535-1.976558V57.451163a32.422698 32.422698 0 0 1 32.434604-32.422698z" fill="#2c2c2c" p-id="42708"></path></svg>